<svg xmlns="http://www.w3.org/2000/svg" aria-hidden="true" style="position:absolute;width:0;height:0;overflow:hidden"><defs><symbol id="icon-arrow" viewBox="0 0 38 32"><path d="M36.91 17.4a2 2 0 0 0 0-2.82L24.2 1.85a2 2 0 1 0-2.83 2.83l11.31 11.31L21.36 27.3a2 2 0 1 0 2.83 2.83L36.9 17.4zM.5 18h35v-4H.5v4z"/></symbol><symbol id="icon-facebook" viewBox="0 0 30 32"><path d="M30.48 16.75a15.24 15.24 0 1 0-17.62 15.06V21.16H8.99v-4.4h3.87V13.4c0-3.82 2.27-5.93 5.75-5.93 1.67 0 3.41.3 3.41.3v3.75H20.1c-1.89 0-2.48 1.17-2.48 2.38v2.85h4.23l-.68 4.4h-3.55v10.66a15.24 15.24 0 0 0 12.86-15.06z"/></symbol><symbol id="icon-twitter" viewBox="0 0 30 32"><path d="M9.59 29.14c11.5 0 17.79-9.53 17.79-17.8l-.02-.8a12.68 12.68 0 0 0 3.12-3.24c-1.14.5-2.35.84-3.6.98a6.28 6.28 0 0 0 2.76-3.46 12.57 12.57 0 0 1-3.97 1.52A6.27 6.27 0 0 0 15 12.04 17.76 17.76 0 0 1 2.12 5.51a6.26 6.26 0 0 0 1.94 8.35c-1-.03-1.97-.3-2.84-.78v.07a6.25 6.25 0 0 0 5.02 6.14c-.92.25-1.88.28-2.82.1a6.27 6.27 0 0 0 5.84 4.35A12.55 12.55 0 0 1 0 26.33a17.74 17.74 0 0 0 9.59 2.8z"/></symbol><symbol id="icon-linkedin" viewBox="0 0 30 32"><path d="M28.22 1.52H2.25C1.01 1.52 0 2.5 0 3.72v26.07c0 1.21 1 2.2 2.25 2.2h25.97c1.24 0 2.26-.99 2.26-2.2V3.71c0-1.21-1.02-2.2-2.26-2.2zM9.04 27.49H4.52V12.94h4.52v14.55zM6.78 10.96a2.62 2.62 0 1 1 0-5.24 2.62 2.62 0 0 1 0 5.24zm19.19 16.53h-4.52v-7.07c0-1.69-.03-3.86-2.35-3.86-2.35 0-2.7 1.84-2.7 3.74v7.19h-4.52V12.94h4.33v1.99h.06a4.75 4.75 0 0 1 4.28-2.35c4.57 0 5.42 3 5.42 6.93v7.98z"/></symbol><symbol id="icon-medal1" viewBox="0 0 21 32"><path d="M11.83 1.56a1.48 1.48 0 0 0 2.32.68c1.1-.87 2.69.14 2.35 1.51-.24 1 .57 1.93 1.58 1.83a1.48 1.48 0 0 1 1.17 2.54c-.74.7-.57 1.92.34 2.39 1.25.64.98 2.5-.4 2.77-1 .19-1.52 1.31-1 2.2a1.48 1.48 0 0 1-1.84 2.1 1.48 1.48 0 0 0-2.03 1.31 1.48 1.48 0 0 1-2.68.79 1.48 1.48 0 0 0-2.42 0 1.48 1.48 0 0 1-2.69-.79 1.48 1.48 0 0 0-2.03-1.3c-1.3.52-2.54-.9-1.83-2.12.51-.88 0-2-1-2.2a1.48 1.48 0 0 1-.4-2.76c.9-.47 1.08-1.69.34-2.4a1.48 1.48 0 0 1 1.16-2.53c1.02.1 1.83-.84 1.58-1.83a1.48 1.48 0 0 1 2.36-1.51c.8.63 1.99.29 2.32-.68a1.48 1.48 0 0 1 2.8 0zm-1.4 14.75a5.71 5.71 0 1 0 0-11.42 5.71 5.71 0 0 0 0 11.42zm3.43-5.7a3.43 3.43 0 1 1-6.86 0 3.43 3.43 0 0 1 6.86 0zM.14 29.73l4-10c.34.25.61.6.88.95.35.45.68.88 1.12 1.06.5.2 1.1.12 1.71.05a5.6 5.6 0 0 1 1.44-.05l-3.72 9.99-1.71-3.71-3.72 1.7zm20.57 0-4-10c-.33.25-.63.57-.94.9-.43.46-.85.92-1.34 1.1-.47.18-1 .12-1.54.05-.43-.05-.88-.1-1.32-.04l3.72 9.99L17 28.02l3.71 1.7z"/></symbol><symbol id="icon-medal2" viewBox="0 0 22 32"><path d="M20.23 10.02a9.4 9.4 0 1 0-18.8 0 9.4 9.4 0 0 0 18.8 0zm-9.1-3.79.75 2.33c.04.13.16.22.3.22h2.45c.3 0 .43.39.18.57l-1.98 1.44a.31.31 0 0 0-.11.35l.75 2.33c.1.29-.23.53-.48.35l-1.98-1.44a.31.31 0 0 0-.37 0l-1.99 1.44a.31.31 0 0 1-.48-.35l.76-2.33a.31.31 0 0 0-.12-.35L6.83 9.35a.31.31 0 0 1 .18-.57h2.46c.13 0 .25-.09.3-.22l.75-2.33c.1-.29.5-.29.6 0zM.15 29.76l4.39-10.97a12.01 12.01 0 0 0 5.65 2.2L6.12 31.94l-1.88-4.07-4.08 1.88zm21.33 0-4.4-10.97a12.01 12.01 0 0 1-5.64 2.2l4.08 10.96 1.88-4.07 4.08 1.88z"/></symbol><symbol id="icon-trophy" viewBox="0 0 30 32"><path d="M6.04 1.72 6.1.68h16.7l.04 1.04h6.56v1.04c0 2.05-.5 5.18-2 8a11.53 11.53 0 0 1-8.06 6.2 6.27 6.27 0 0 1-3.5 2.32v4.33a3.54 3.54 0 0 0 2.43 3.47h-7.65c1.95 0 2.43-2.31 2.43-3.47v-4.33a6.35 6.35 0 0 1-3.65-2.53 11.6 11.6 0 0 1-7.22-5.99c-1.5-2.83-2-5.95-2-8V1.72h5.87zm0 2.08H2.32c.14 1.72.63 3.96 1.7 5.99a9.98 9.98 0 0 0 3.81 4.07C6.62 10.81 6.14 7.01 6.05 3.8zm14.83 10.5a9.72 9.72 0 0 0 4.68-4.51 15.9 15.9 0 0 0 1.7-5.99h-4.43c-.1 3.36-.61 7.38-1.95 10.5zm-12 13.48v3.82H20v-3.82H8.87z"/></symbol><symbol id="icon-branch-right" viewBox="0 0 14 32"><path d="M13.36 16.73a.1.1 0 0 0-.09-.01l-.1.03-.2.06a4.76 4.76 0 0 0-2.7 2.76c.16-.84.19-1.16.22-2.1v-.12c0-.1 0-.21.02-.3.03-.11.09-.22.14-.33l.05-.09.02-.01c.28-.05.52-.16.75-.36.23-.2.42-.45.56-.74a7.38 7.38 0 0 0 .72-3.9.1.1 0 0 0-.15-.07 4.94 4.94 0 0 0-2.17 3.74l-.03-.3v-.05l-.1-1.23c0-.1-.02-.2-.04-.3-.03-.2-.07-.37-.01-.56l.03-.12c.03-.1.16-.27.36-.45.07-.06.45-.4.66-1.09.22-.68.2-1.4.2-1.93v-.01a6.08 6.08 0 0 0-.33-1.96l-.04-.11a.1.1 0 0 0-.08-.06h-.01a.1.1 0 0 0-.08.03l-.15.2a4.7 4.7 0 0 0-1.04 3.8A18.31 18.31 0 0 0 9.1 9.2v-.45a.2.2 0 0 1 .04-.09l.13-.15c.07-.1.15-.18.21-.29.2-.33.3-.73.3-1.25a7.57 7.57 0 0 0-.89-3.46l-.07-.1-.04-.04c-.01-.03-.04-.04-.08-.04a.1.1 0 0 0-.07.05c-.4.7-.6 1.47-.6 2.32-.01.7.1 1.32.24 1.8-.36-.65-.75-1.27-1.17-1.86l-.01-.02-.02-.01-.06-.48.03-.05.09-.14c.07-.1.13-.2.18-.32.13-.35.16-.75.09-1.21A5.42 5.42 0 0 0 5.74.3L5.72.3A5.04 5.04 0 0 1 5.6.2a.1.1 0 0 0-.16.05L5.43.3a6.26 6.26 0 0 0 0 2.18c.12.75.36 1.39.72 1.95a15 15 0 0 0-1.64-1.69c.04-.37-.05-.73-.29-1.08C3.92 1.2 3.5.85 2.95.62 2.63.48 2.3.36 1.97.24L1.5.06C1.34 0 1.27-.01 1.23.02c-.05.04-.04.08-.01.15V.2c.2.66.46 1.18.8 1.6a2.93 2.93 0 0 0 2.23 1.18l.07.02.3.24c.25.23.5.48.74.74a2.24 2.24 0 0 0-1.3-.3c-.28 0-.56.05-.82.09L3 3.8l-.5.08c-.05.01-.2.05-.23.12a.08.08 0 0 0 0 .07 3.2 3.2 0 0 0 1.56 1.2c.71.24 1.37.22 1.96-.06.09-.05.2-.08.32-.08.1 0 .16.02.19.02s.08.03.09.04c.37.48.71 1 1.04 1.54a2.32 2.32 0 0 0-1.12-.57c-.43-.1-.87-.12-1.3-.14L4.89 6l-.4-.02-.23-.02a.1.1 0 0 0-.08.04.1.1 0 0 0-.01.09l.03.08c.45.75.97 1.26 1.6 1.58.62.3 1.18.39 1.74.25A.93.93 0 0 1 7.75 8c.24 0 .4.07.44.14.3.64.58 1.3.82 1.97-.25-.34-.6-.62-1.04-.83L6.63 8.7l-.59-.24c-.02-.02-.06-.01-.09 0s-.04.05-.04.08c0 .06.64 1.84 1.58 2.54.38.29.84.58 1.43.6.18 0 .36.03.5.18.02.03.05.05.08.06.05.01.06.04.08.14.2.8.34 1.63.42 2.47a3.68 3.68 0 0 0-1.2-1.71c-.28-.25-.57-.48-.86-.7l-.01-.02-.39-.3a2.01 2.01 0 0 1-.08-.07l-.08-.07c-.03-.03-.07-.03-.1-.01s-.06.05-.05.09v.18a5.66 5.66 0 0 0 .9 2.76c.3.43.74.95 1.42 1.2.16.06.28.15.4.31.13.16.15.3.15.47-.01.74-.06 1.48-.16 2.2-.02-.2-.07-.41-.14-.63a4.75 4.75 0 0 0-.7-1.31c-.27-.39-.56-.77-.84-1.14l-.02-.03-.33-.44c-.02-.03-.05-.04-.07-.04-.03-.01-.05-.02-.08 0s-.04.03-.05.05v.01l-.02.04a5.31 5.31 0 0 0 .37 3.16c.21.47.5 1.01 1 1.4.23.18.42.42.52.7.02.06.02.08.01.1-.21.88-.49 1.73-.83 2.54.09-.43.08-.88-.02-1.34-.14-.66-.38-1.3-.6-1.84l-.06-.16-.31-.78c-.02-.04-.05-.06-.1-.06a.1.1 0 0 0-.08.05l-.03.06-.04.08c-.44.99-.59 2-.44 3 .1.73.28 1.24.57 1.68.16.23.3.48.33.79 0 .07 0 .12-.03.18-.37.64-.79 1.25-1.24 1.82v-.01c.33-.6.34-1.24.3-1.8-.02-.46-.07-.94-.13-1.4v-.02l-.06-.55-.04-.3-.01-.15a.1.1 0 0 0-.05-.07c-.05-.03-.14.01-.23.12a4.93 4.93 0 0 0-.9 4.96l-.01.4c0 .03-.02.07-.03.08-.62.6-1.3 1.11-2.03 1.54.35-.31.6-.72.76-1.23.18-.57.27-1.17.36-1.75v-.05l.1-.6.04-.24c0-.04 0-.07-.03-.1s-.07-.02-.1 0l-.03.01-.1.04a4.04 4.04 0 0 0-2.15 3.82c.02.24 0 .46-.07.68a.1.1 0 0 1-.04.05 11 11 0 0 1-1.9.62c-.03 0-.06.03-.07.06s0 .06.02.09c.07.08.13.17.17.26a.1.1 0 0 0 .1.04 10.8 10.8 0 0 0 1.58-.46l.34.06.05.02c.26.53.72.88 1.4 1.04a3.62 3.62 0 0 0 .99.1L5.4 32a4.9 4.9 0 0 0 1.54-.4c.18-.1.39-.2.55-.41a.1.1 0 0 0-.01-.13c-.45-.4-.92-.69-1.41-.89A3.61 3.61 0 0 0 3.72 30a11.82 11.82 0 0 0 1.8-1.31l.33-.04h.03c.34.38.77.56 1.32.56h.08c.6-.02 1.2-.19 1.8-.5.43-.22.88-.48 1.24-.87.08-.08.15-.18.21-.27h.01l.09-.12c.01-.02.02-.04.01-.07s-.01-.05-.04-.07l-.3-.14a4.1 4.1 0 0 0-2.8-.1c-.29.1-.57.23-.84.43.5-.58.97-1.22 1.39-1.9l.02-.04.11-.06.2-.13c.06-.04.08-.05.13-.01.08.05.17.08.25.1.47.12.95.06 1.47-.19a3.9 3.9 0 0 0 1.17-.92 4.7 4.7 0 0 0 1.08-1.76c0-.05.02-.1.03-.14a.1.1 0 0 0-.05-.11h-.04c-.2 0-1.92.02-2.93 1a5.2 5.2 0 0 0-.6.69c.4-.85.74-1.74 1.01-2.66v-.01l.02-.04.26-.36.03-.01H10.69c.38-.06.72-.25 1.04-.58a6.36 6.36 0 0 0 1.59-2.94c.03-.13.04-.26.05-.4 0-.07 0-.13.02-.2a.1.1 0 0 0-.04-.08z"/></symbol><symbol id="icon-star" viewBox="0 0 33 32"><path d="m25.46 20.42 7.46-7.26a.93.93 0 0 0-.52-1.58l-10.3-1.5L17.5.78a.93.93 0 0 0-1.66 0l-4.6 9.32-10.3 1.5a.93.93 0 0 0-.52 1.57l7.45 7.26-1.76 10.25a.92.92 0 0 0 1.35.97l9.2-4.83 9.22 4.83a.93.93 0 0 0 1.34-.97l-1.75-10.25z"/></symbol><symbol id="icon-branch-left" viewBox="0 0 14 32"><path d="M13.2 30.78c-.63-.14-1.25-.34-1.9-.61a.1.1 0 0 1-.04-.05 1.85 1.85 0 0 1-.06-.68 4.04 4.04 0 0 0-2.26-3.86l-.03-.02a.1.1 0 0 0-.1.02.1.1 0 0 0-.03.09l.04.23.1.61v.05c.1.58.18 1.17.36 1.75.16.51.41.92.76 1.23A10.9 10.9 0 0 1 8 28a.14.14 0 0 1-.03-.07l-.02-.41.01-.07a4.92 4.92 0 0 0-.9-4.89c-.07-.09-.14-.13-.2-.13h-.03a.1.1 0 0 0-.05.08l-.01.14a18.82 18.82 0 0 0-.1.86v.03c-.06.45-.11.92-.14 1.4-.03.55-.02 1.2.3 1.79-.44-.56-.86-1.17-1.23-1.82-.03-.05-.03-.1-.03-.18.03-.3.17-.56.33-.78.29-.44.47-.95.57-1.67.15-1.01 0-2.02-.44-3L6 19.18l-.03-.06a.1.1 0 0 0-.18 0l-.3.79-.07.16c-.22.54-.46 1.18-.6 1.84-.1.46-.11.91-.02 1.34-.34-.81-.62-1.67-.84-2.55l.02-.1c.1-.27.28-.52.52-.7.5-.38.79-.92 1-1.4.44-.97.56-2 .36-3.15v-.04c-.02-.04-.04-.06-.06-.07s-.06 0-.08 0c-.02.01-.05.02-.06.05l-.34.44-.02.03-.85 1.14c-.32.44-.55.87-.7 1.31-.06.22-.11.42-.13.62-.1-.72-.15-1.45-.16-2.19 0-.18.02-.32.14-.47a.88.88 0 0 1 .41-.32 3.07 3.07 0 0 0 1.41-1.19 5.04 5.04 0 0 0 .9-2.76v-.02l.01-.17a.1.1 0 0 0-.15-.07l-.08.06-.08.07-.4.31v.01l-.86.7a3.68 3.68 0 0 0-1.2 1.71c.09-.84.22-1.66.42-2.46.02-.1.03-.13.08-.15a.18.18 0 0 0 .08-.05c.14-.16.32-.18.5-.19a2.5 2.5 0 0 0 1.43-.6c.94-.7 1.58-2.47 1.58-2.53 0-.03-.02-.06-.05-.08s-.06-.02-.08 0l-.6.24c-.43.18-.9.37-1.33.58-.44.2-.8.48-1.04.83.24-.68.51-1.34.82-1.98.04-.06.2-.14.44-.14.08 0 .16.01.22.03.56.13 1.12.05 1.74-.26A3.92 3.92 0 0 0 9.4 6.1.1.1 0 0 0 9.4 6a.1.1 0 0 0-.08-.03l-.22.01-.4.02-.15.01c-.42.02-.86.04-1.29.15-.48.11-.84.3-1.12.56.33-.54.68-1.06 1.04-1.54l.1-.04.18-.02c.13 0 .23.03.33.08.58.29 1.24.3 1.95.06a3.2 3.2 0 0 0 1.56-1.2.08.08 0 0 0 0-.07c-.03-.07-.18-.1-.24-.11l-.49-.08-.23-.03h-.01a8.52 8.52 0 0 0-.81-.1c-.5-.03-.95.08-1.31.3A13.73 13.73 0 0 1 9.24 3l.06-.01a2.94 2.94 0 0 0 2.24-1.19c.34-.41.6-.94.8-1.6V.17c.03-.07.04-.11-.01-.16-.04-.03-.1-.02-.27.05l-.48.17-.97.38c-.54.24-.96.6-1.27 1.05a1.56 1.56 0 0 0-.3 1.1c-.55.48-1.09 1.02-1.64 1.67.37-.56.6-1.2.73-1.95.12-.75.13-1.42.02-2.05L8.13.31 8.1.23c0-.03-.03-.06-.06-.07s-.07 0-.1.02l-.11.1-.03.03-.26.25A5.42 5.42 0 0 0 6.16 3.4c-.07.47-.04.86.1 1.21.04.12.1.22.17.32l.09.15.02.04a11.85 11.85 0 0 1-.07.5v.01c-.43.6-.83 1.22-1.18 1.86.14-.48.25-1.1.24-1.8a4.78 4.78 0 0 0-.6-2.32.1.1 0 0 0-.08-.05.1.1 0 0 0-.08.04l-.03.05-.07.1c-.32.48-.48 1.03-.6 1.44-.2.77-.3 1.41-.3 2.02.01.51.1.91.3 1.25l.22.28.13.15a.2.2 0 0 1 .04.1V9.2l-.01.04c-.25.61-.48 1.24-.66 1.9.02-.23.04-.44.04-.65a4.7 4.7 0 0 0-1.08-3.16l-.16-.18a.1.1 0 0 0-.07-.04h-.01a.1.1 0 0 0-.08.06l-.04.1-.07.2c-.16.5-.24 1.05-.25 1.77v.01c-.01.53-.03 1.25.19 1.94.21.68.59 1.02.66 1.08.2.18.33.34.36.45l.03.13c.06.18.03.36-.01.55l-.05.3-.1 1.24v.03l-.02.31a5.04 5.04 0 0 0-2.17-3.73c-.03-.02-.07-.02-.1 0s-.04.04-.05.07c0 .06 0 .11-.02.17l-.02.35c-.01 1.21.25 2.35.76 3.37.14.29.33.54.56.74.23.2.47.32.75.36l.02.01.05.1c.05.1.11.2.14.32.02.1.02.2.02.3v.12c.03.94.07 1.27.22 2.1a4.76 4.76 0 0 0-2.7-2.76l-.2-.06-.1-.03c-.03 0-.06 0-.09.02s-.03.05-.03.08l.02.2c0 .13.02.27.05.4.31 1.2.83 2.17 1.58 2.94.33.33.67.52 1.04.57.1.02.21.02.4 0H3.36c.01 0 .02 0 .03.02l.26.36.01.04c.28.93.62 1.82 1.02 2.67a5.27 5.27 0 0 0-.6-.69c-1.01-.98-2.74-1-2.93-1H1.1a.1.1 0 0 0-.06.11l.04.15.1.3c.2.48.5.94.98 1.45.32.34.69.7 1.17.92.52.25 1 .3 1.46.19a.86.86 0 0 0 .26-.1c.05-.04.07-.04.12 0l.2.13.12.07.02.03c.42.69.88 1.33 1.39 1.91-.28-.2-.55-.34-.85-.44a4.1 4.1 0 0 0-3.1.26c-.02.01-.03.03-.04.06s0 .05.02.07l.09.11v.01c.07.09.14.19.22.27.36.4.8.65 1.24.87.59.31 1.2.48 1.8.5h.08c.55 0 .98-.19 1.31-.56h.03a3.62 3.62 0 0 1 .38.06c.56.49 1.14.92 1.76 1.29-.1-.03-.2-.06-.29-.07a3.61 3.61 0 0 0-2.06.24c-.5.2-.96.49-1.41.89a.1.1 0 0 0-.02.13c.17.2.37.31.56.4.44.2.95.34 1.54.4a5.07 5.07 0 0 0 1.44-.09c.68-.16 1.14-.5 1.4-1.03l.06-.02.34-.07a10.77 10.77 0 0 0 1.6.47.1.1 0 0 0 .07-.05c.05-.09.11-.17.18-.25a.1.1 0 0 0-.05-.16z"/></symbol><symbol id="icon-suppor5" viewBox="0 0 138 32"><path d="M39.62 9.78h3.48v14.08h-3.48V9.78zm4.88 8.79c0-3.49 2.17-5.58 5.42-5.58s5.43 2.09 5.43 5.58-2.1 5.6-5.43 5.6-5.43-2.04-5.43-5.6zm7.4 0c0-1.92-.75-3.05-1.94-3.05s-1.94 1.09-1.94 3.05c0 1.96.74 3.03 1.94 3.03s1.96-1.07 1.96-3.02l-.02-.01zm4.84 6.02h3.37A1.8 1.8 0 0 0 62 25.67c1.33 0 2.03-.71 2.03-1.77v-1.95a3.34 3.34 0 0 1-3.25 1.9c-2.55 0-4.24-1.95-4.24-5.28s1.61-5.42 4.34-5.42a3.34 3.34 0 0 1 3.26 2.05h-.1v-1.96h3.45v10.55c0 2.54-2.25 4.14-5.58 4.14-3.02-.01-4.95-1.39-5.15-3.33l-.02-.01zm7.3-6.02c0-1.7-.78-2.77-2.02-2.77s-2 1.08-2 2.77.75 2.68 2 2.68 2.02-.92 2.02-2.68zm4.83 0c0-3.49 2.17-5.58 5.43-5.58s5.43 2.09 5.43 5.58-2.1 5.6-5.43 5.6-5.4-2.04-5.4-5.6h-.03zm7.4 0c0-1.92-.75-3.05-1.94-3.05s-1.93 1.09-1.93 3.05c0 1.96.74 3.03 1.93 3.03s1.97-1.07 1.97-3.02l-.02-.01zm4.87-7.9a1.77 1.77 0 0 1 1.05-1.7 1.8 1.8 0 0 1 1.96.34 1.77 1.77 0 0 1-1.23 3.06 1.72 1.72 0 0 1-1.76-1.69h-.02zm0 2.56h3.53V23.9h-3.48l-.05-10.68zm16.22 5.34c0 3.48-1.56 5.49-4.22 5.49a3.34 3.34 0 0 1-3.26-1.98h-.06v5.26h-3.49V13.26h3.47v1.9h.06a3.35 3.35 0 0 1 3.26-2.05c2.73-.02 4.31 1.98 4.31 5.47l-.07-.01zm-3.55 0c0-1.7-.8-2.79-2.02-2.79s-2 1.09-2 2.79c-.02 1.7.77 2.77 2 2.77s2.09-1 2.09-2.76l-.07-.01zm9.5-5.6c2.92 0 4.74 1.38 4.76 3.6h-3.18c0-.78-.64-1.25-1.6-1.25s-1.4.37-1.4.92.4.73 1.2.89l2.23.45c2.17.46 3.04 1.32 3.04 2.94 0 2.16-2 3.64-5 3.64s-4.92-1.43-5.06-3.6h3.37c.1.78.73 1.25 1.75 1.25s1.5-.33 1.5-.9-.32-.67-1.16-.85l-2.02-.42c-2.1-.44-3.2-1.54-3.2-3.17.07-2.12 1.9-3.48 4.84-3.48l-.07-.01zm16.72 10.93h-3.37v-2h-.07a3.05 3.05 0 0 1-3.11 2.21 3.74 3.74 0 0 1-3.84-4.02v-6.85h3.49v6.1c0 1.26.66 1.95 1.75 1.95a1.79 1.79 0 0 0 1.7-1.29c.07-.24.08-.5.05-.75v-6.01h3.47l-.06 10.66zm1.69-10.67h3.38v2.05h.08a3.1 3.1 0 0 1 3.05-2.25 2.78 2.78 0 0 1 2.98 2.27h.15a3.24 3.24 0 0 1 3.26-2.27 3.4 3.4 0 0 1 3.5 3.63v7.25h-3.5v-6.36c0-1.08-.51-1.7-1.5-1.7a1.52 1.52 0 0 0-1.53 1.73v6.33h-3.33v-6.4c0-1.08-.53-1.65-1.48-1.65a1.55 1.55 0 0 0-1.56 1.74v6.3h-3.48l-.02-10.67zM32.73 10.7A10.7 10.7 0 0 0 19.57.28c-2.1.48-4.02 1.6-5.48 3.19H.54V32h28.61V18.66a10.7 10.7 0 0 0 3.58-7.96zm-5.51 0a5.21 5.21 0 0 1-6.25 5.14 5.24 5.24 0 0 1-3.82-7.12 5.22 5.22 0 0 1 10.07 1.98zm-3.57 15.8H6.05V8.97h5.36a10.71 10.71 0 0 0 12.24 12.32v5.23z"/></symbol><symbol id="icon-suppor4" viewBox="0 0 159 32"><path d="M51.45 25.84c-.8.04-1.58-.18-2.23-.64a2.08 2.08 0 0 1-.85-1.74V11.13a.34.34 0 0 1 .1-.29c.04-.04.09-.07.14-.08s.1-.03.15-.02h2.25c.26 0 .38.13.38.39V22.5c0 .5.22.76.7.76.2 0 .39-.01.58-.07.27 0 .42.08.43.32l.2 1.66v.15a.34.34 0 0 1-.32.27c-.5.16-1 .24-1.53.25zM64.1 24.42a6.33 6.33 0 0 1-8.03 0 5.3 5.3 0 0 1 0-7.5 6.36 6.36 0 0 1 8.04 0 5.38 5.38 0 0 1 0 7.48v.02zm-5.91-1.76a2.86 2.86 0 0 0 3.83 0 2.97 2.97 0 0 0 0-3.91 2.86 2.86 0 0 0-3.83 0 2.97 2.97 0 0 0 0 3.91zM78 15.84c.26 0 .38.13.38.38v9.54a4.32 4.32 0 0 1-1.48 3.42 5.64 5.64 0 0 1-3.9 1.33 6.3 6.3 0 0 1-3.63-1 4 4 0 0 1-1.75-2.66c0-.26 0-.38.36-.38h2.25a.5.5 0 0 1 .44.3c.15.4.44.74.82.95.46.23.98.35 1.5.34a2.4 2.4 0 0 0 1.72-.6 2.27 2.27 0 0 0 .63-1.67v-.84c-.8.59-1.78.9-2.78.87a5.24 5.24 0 0 1-3.8-1.45 5.3 5.3 0 0 1 0-7.4 5.24 5.24 0 0 1 3.8-1.44c1.03-.03 2.03.3 2.85.92v-.21l.01-.16c.01-.06.05-.09.08-.13a.35.35 0 0 1 .28-.1l2.23-.01zm-5.19 7.6a2.36 2.36 0 0 0 1.83-.79 3.25 3.25 0 0 0 0-3.98 2.33 2.33 0 0 0-1.82-.77 2.43 2.43 0 0 0-1.86.78 2.8 2.8 0 0 0-.72 2c-.02.73.23 1.43.71 1.98a2.44 2.44 0 0 0 1.86.79zM89.94 24.42a6.36 6.36 0 0 1-8.03 0 5.4 5.4 0 0 1 0-7.5 6.37 6.37 0 0 1 8.03 0 5.38 5.38 0 0 1 0 7.49zm-5.93-1.76a2.68 2.68 0 0 0 1.93.73 2.69 2.69 0 0 0 1.91-.73 3 3 0 0 0 0-3.91 2.68 2.68 0 0 0-1.91-.73 2.68 2.68 0 0 0-1.93.73 3 3 0 0 0 0 3.91zM96.29 13.57a1.95 1.95 0 0 1-2.56 0 1.62 1.62 0 0 1-.5-1.17 1.61 1.61 0 0 1 .5-1.17 2 2 0 0 1 2.56 0 1.62 1.62 0 0 1 .5 1.17 1.6 1.6 0 0 1-.5 1.17zm.28 12.27c-.8.04-1.58-.18-2.24-.64a2.1 2.1 0 0 1-.83-1.74v-7.24a.34.34 0 0 1 .24-.37c.05-.01.1-.02.15-.01h2.25c.26 0 .38.13.38.38v6.28c0 .5.22.76.68.76.2 0 .4-.01.6-.07.27 0 .42.08.43.32l.2 1.67c.01.04.01.1 0 .14s-.03.1-.06.13a.34.34 0 0 1-.26.14 5.1 5.1 0 0 1-1.54.25zM106.7 15.52a5.27 5.27 0 0 1 3.84 1.44 5.44 5.44 0 0 1 0 7.43 5.22 5.22 0 0 1-3.83 1.45c-1 .03-1.99-.28-2.8-.86v4.8c0 .25-.14.37-.39.37h-2.4a.28.28 0 0 1-.14-.08l-.08-.14a.27.27 0 0 1 0-.15v-10.9a.69.69 0 0 0-.2-.6.7.7 0 0 0-.6-.2h-.44c-.3 0-.44-.1-.44-.31V16.2a.43.43 0 0 1 .3-.44c.47-.17.96-.25 1.46-.24a2.5 2.5 0 0 1 2.42 1.33 4.5 4.5 0 0 1 3.3-1.33zm-2.08 7.14a2.57 2.57 0 0 0 3.7 0c.5-.56.76-1.29.73-2.03a2.82 2.82 0 0 0-.74-2.04 2.57 2.57 0 0 0-3.7 0c-.48.56-.73 1.3-.7 2.04-.03.74.22 1.46.7 2.03zM118.33 25.84a6.5 6.5 0 0 1-3.44-.82 3.26 3.26 0 0 1-1.55-2.36c0-.26.09-.4.38-.4h1.97a.51.51 0 0 1 .45.3c.28.71 1.01 1.07 2.2 1.07.4.02.81-.06 1.18-.23a.77.77 0 0 0 .46-.66c0-.34-.22-.58-.64-.74a7.3 7.3 0 0 0-1.57-.33 14.9 14.9 0 0 1-1.88-.34 3.08 3.08 0 0 1-1.56-.89 2.84 2.84 0 0 1 .57-4.12c.97-.62 2.1-.91 3.24-.86 1.11-.03 2.2.24 3.16.79a2.89 2.89 0 0 1 1.47 2.09c0 .26-.11.4-.35.4h-1.99a.42.42 0 0 1-.4-.24 1.33 1.33 0 0 0-.7-.7 2.37 2.37 0 0 0-1.15-.27c-.39-.02-.78.05-1.13.22a.67.67 0 0 0-.43.61.86.86 0 0 0 .64.79c.51.2 1.05.33 1.6.4.62.08 1.24.2 1.85.34.6.14 1.15.45 1.57.9a2.53 2.53 0 0 1 .66 1.82 2.65 2.65 0 0 1-1.25 2.31c-1 .64-2.17.96-3.36.92zM137.1 25.18a.36.36 0 0 1-.31.41c-.5.16-1 .24-1.52.25a2.99 2.99 0 0 1-2.68-1.16 4.86 4.86 0 0 1-3.41 1.16 4.2 4.2 0 0 1-3.13-1.2 4.35 4.35 0 0 1-1.2-3.21v-5.2c0-.26.12-.4.38-.4h2.25c.25 0 .37.14.37.4v4.8c-.02.6.19 1.18.58 1.63a2 2 0 0 0 1.54.63 2.22 2.22 0 0 0 1.6-.59 2.13 2.13 0 0 0 .6-1.58v-4.9c0-.25.13-.38.38-.38h2.28c.26 0 .38.13.38.38v6.27c0 .52.22.77.66.77.21 0 .42-.01.62-.07a.34.34 0 0 1 .3.06c.04.03.08.07.1.11.03.05.04.1.04.15l.16 1.67zM158.37 25.18c.01.04.02.1 0 .14 0 .05-.02.1-.05.13s-.07.08-.11.1a5.23 5.23 0 0 1-1.68.3c-.8.03-1.59-.2-2.24-.65a2.07 2.07 0 0 1-.9-1.74v-3.13c.03-.6-.17-1.18-.56-1.63a1.9 1.9 0 0 0-1.5-.63 1.68 1.68 0 0 0-1.34.59c-.35.44-.53 1-.5 1.57v4.9c0 .26-.13.4-.38.4h-2.27a.36.36 0 0 1-.28-.1c-.04-.04-.07-.09-.09-.14s-.02-.1-.01-.15v-4.8a2.45 2.45 0 0 0-.53-1.64 1.72 1.72 0 0 0-1.34-.63 1.97 1.97 0 0 0-1.47.59c-.38.43-.58 1-.55 1.57v4.9l-.01.16a.35.35 0 0 1-.37.23H140c-.25 0-.37-.13-.37-.38v-6.27a.69.69 0 0 0-.47-.76.7.7 0 0 0-.32-.02h-.45c-.29 0-.44-.11-.44-.32V16.2c0-.1.02-.2.08-.28s.14-.14.23-.16c.46-.17.95-.25 1.45-.24a2.54 2.54 0 0 1 2.38 1.22 4.53 4.53 0 0 1 3.4-1.22 3.86 3.86 0 0 1 3.18 1.4 4.42 4.42 0 0 1 3.5-1.4 4.24 4.24 0 0 1 3.18 1.2 4.33 4.33 0 0 1 1.2 3.22v2.56c0 .51.22.76.65.76a2 2 0 0 0 .61-.06c.28 0 .43.1.45.31l.12 1.67zM1.34 14.1A18.36 18.36 0 0 1 19.14.29c4.08.01 8.06 1.37 11.28 3.88s5.51 6 6.5 9.95h-1.6c-2.72-.04-5.37.76-7.6 2.3-.13.1-.26.18-.4.25h-.19a13.68 13.68 0 0 0-15.6-.25c-.13.1-.26.18-.4.25h-.19a3.82 3.82 0 0 1-.4-.25 13.04 13.04 0 0 0-7.6-2.3h-1.6zm31.08 8.35a4.54 4.54 0 0 1 2.9-.95h2.15v-4.27h-2.15a8.58 8.58 0 0 0-5.13 1.63 4.9 4.9 0 0 1-5.79 0 9.15 9.15 0 0 0-10.4 0 4.9 4.9 0 0 1-5.8 0 8.58 8.58 0 0 0-5.19-1.63H.8v4.27h2.16c1.04-.02 2.06.31 2.89.95a9.12 9.12 0 0 0 10.4 0 4.56 4.56 0 0 1 2.88-.95 4.5 4.5 0 0 1 2.9.95 9.15 9.15 0 0 0 10.4 0zm0 7.64a4.54 4.54 0 0 1 2.9-.95h2.15v-4.27h-2.15a8.58 8.58 0 0 0-5.13 1.62 4.9 4.9 0 0 1-5.79 0 9.15 9.15 0 0 0-10.4 0 4.9 4.9 0 0 1-5.8 0 8.58 8.58 0 0 0-5.19-1.62H.8v4.27h2.16c1.04-.03 2.06.3 2.89.95a9.13 9.13 0 0 0 10.4 0 4.56 4.56 0 0 1 2.88-.95 4.5 4.5 0 0 1 2.9.95 9.15 9.15 0 0 0 10.4 0z"/></symbol><symbol id="icon-suppor3" viewBox="0 0 139 32"><path d="M40.91 9.15h3.48v14.04h-3.48V9.15zm4.86 8.74c0-3.48 2.14-5.55 5.44-5.55s5.43 2.07 5.43 5.55c0 3.47-2.1 5.56-5.43 5.56s-5.44-2.03-5.44-5.56zm7.37 0c0-1.91-.75-3.04-1.93-3.04s-1.93 1.16-1.93 3.04c0 1.87.73 3.01 1.93 3.01s1.93-1.06 1.93-3v-.01zm4.8 5.99h3.35a1.79 1.79 0 0 0 1.88 1.04c1.33 0 2.02-.72 2.02-1.76V21.2h-.07a3.3 3.3 0 0 1-3.17 1.9c-2.54 0-4.22-1.93-4.22-5.25s1.6-5.42 4.27-5.42a3.34 3.34 0 0 1 3.2 2.03v-1.93h3.49v10.54c0 2.53-2.24 4.1-5.55 4.1-3.08 0-5-1.37-5.19-3.3zm7.26-6c0-1.7-.77-2.76-2-2.76s-1.99 1.05-1.99 2.76c0 1.7.74 2.66 1.99 2.66s2-.94 2-2.65v-.01zm4.8 0c0-3.48 2.13-5.55 5.43-5.55s5.44 2.07 5.44 5.55c0 3.47-2.09 5.55-5.44 5.55S70 21.42 70 17.9v-.01zm7.37 0c0-1.91-.76-3.04-1.94-3.04s-1.87 1.17-1.87 3.06c0 1.89.73 3.01 1.92 3.01s1.89-1.08 1.89-3.01v-.02zm4.83-7.86a1.77 1.77 0 0 1 3-1.33 1.77 1.77 0 0 1-1.2 3.05 1.69 1.69 0 0 1-1.8-1.7v-.02zm0 2.54h3.48V23.2H82.2V12.56zm16.12 5.32c0 3.47-1.55 5.45-4.2 5.45a3.33 3.33 0 0 1-3.24-1.97h-.07v5.24h-3.48V12.54h3.48v1.9h.07a3.33 3.33 0 0 1 3.23-2.05c2.67.04 4.26 2.04 4.26 5.51l-.05-.02zm-3.48 0c0-1.7-.78-2.77-2-2.77s-2 1.09-2 2.77c-.02 1.68.78 2.75 2 2.75s2-1.05 2-2.73v-.02zm9.45-5.56c2.9 0 4.65 1.37 4.73 3.55h-3.17c0-.75-.63-1.22-1.59-1.22s-1.4.37-1.4.91.39.72 1.17.88l2.23.45c2.12.46 3.02 1.31 3.02 2.92 0 2.2-2 3.62-4.96 3.62s-4.9-1.42-5.05-3.58h3.35c.1.78.73 1.25 1.75 1.25s1.5-.34 1.5-.9-.33-.67-1.17-.84l-2-.43c-2.09-.42-3.18-1.53-3.18-3.15.03-2.08 1.9-3.44 4.77-3.44v-.02zm16.61 10.85h-3.35v-1.98h-.07a3.02 3.02 0 0 1-3.09 2.21 3.72 3.72 0 0 1-3.7-2.44 3.69 3.69 0 0 1-.2-1.55v-6.87h3.49v6.07c0 1.26.65 1.93 1.72 1.93a1.8 1.8 0 0 0 1.7-1.25c.08-.25.1-.5.07-.75v-6h3.48l-.05 10.63zm1.69-10.63h3.36v2.05h.07a3.09 3.09 0 0 1 3.03-2.25 2.78 2.78 0 0 1 2.96 2.32h.07a3.27 3.27 0 0 1 3.28-2.32 3.39 3.39 0 0 1 3.48 3.61v7.24h-3.48v-6.3c0-1.17-.53-1.7-1.5-1.7a1.52 1.52 0 0 0-1.52 1.71v6.3h-3.3v-6.37c0-1.06-.53-1.64-1.48-1.64a1.55 1.55 0 0 0-1.55 1.74v6.26h-3.48l.06-10.65zM31.17 9.78c-.59-1.34-1.37-2.6-2.32-3.73A15.7 15.7 0 0 0 2.9 23.45a15.67 15.67 0 0 0 8 7.1 15.76 15.76 0 0 0 21.59-14.53c0-2.15-.45-4.27-1.3-6.24zM16.76 3.5c1.8 0 3.6.39 5.24 1.15-.4.18-.82.3-1.25.36a6.66 6.66 0 0 0-5.63 5.62 3.47 3.47 0 0 1-3.15 3.07 6.66 6.66 0 0 0-5.62 5.61c-.07.76-.4 1.47-.92 2.02a12.47 12.47 0 0 1 5.3-16.31 12.57 12.57 0 0 1 6.04-1.55l-.01.02zm-9.6 20.62.42-.38c1.03-1 1.7-2.32 1.88-3.74.07-.8.43-1.55 1-2.11.56-.58 1.3-.93 2.1-1a6.66 6.66 0 0 0 5.64-5.61 3.38 3.38 0 0 1 3.13-3.17 6.37 6.37 0 0 0 3.48-1.66c1.1.9 2.02 2 2.74 3.22a3.33 3.33 0 0 1-2.25 1.18 6.63 6.63 0 0 0-5.63 5.62 3.47 3.47 0 0 1-3.12 3.1 6.69 6.69 0 0 0-5.67 5.61c-.06.57-.25 1.11-.57 1.59-1.19-.7-2.25-1.6-3.15-2.65zm9.6 4.47c-1.18 0-2.35-.16-3.49-.49.4-.72.64-1.5.75-2.31a3.47 3.47 0 0 1 3.1-3.1 6.66 6.66 0 0 0 5.65-5.62 3.47 3.47 0 0 1 3.11-3.1 6.63 6.63 0 0 0 2.97-1.16 12.5 12.5 0 0 1-6.56 14.42c-1.72.85-3.61 1.3-5.53 1.3v.06z"/></symbol><symbol id="icon-suppor2" viewBox="0 0 142 32"><path d="M34.68 7.53h3.26v15.8h-3.26V7.53zM39.77 17.91a5.77 5.77 0 0 1 3.52-5.3 5.66 5.66 0 0 1 6.22 1.26 5.76 5.76 0 0 1-6.26 9.36 5.63 5.63 0 0 1-3.48-5.31zm8.16 0a2.5 2.5 0 0 0-1.57-2.25 2.45 2.45 0 0 0-2.68.58 2.5 2.5 0 0 0 2.74 4.05 2.42 2.42 0 0 0 1.49-2.37h.02zM63.99 12.5v10.3c0 3.62-2.82 5.16-5.68 5.16a5.4 5.4 0 0 1-5.1-2.62l2.76-1.6a2.48 2.48 0 0 0 2.45 1.37 2.16 2.16 0 0 0 2.29-1.38c.12-.3.16-.62.14-.94v-1a3.83 3.83 0 0 1-3.14 1.4 5.41 5.41 0 0 1-5.42-5.46 5.49 5.49 0 0 1 5.42-5.47 3.81 3.81 0 0 1 3.14 1.4v-1.1L64 12.5zm-3.14 5.2a2.64 2.64 0 0 0-1.53-2.5 2.59 2.59 0 0 0-3.62 1.83 2.64 2.64 0 0 0 1.09 2.73c.43.3.94.45 1.46.45a2.41 2.41 0 0 0 2.42-1.52c.13-.31.2-.65.18-1zM65.83 17.91a5.78 5.78 0 0 1 3.52-5.3 5.67 5.67 0 0 1 7.77 4.2 5.78 5.78 0 0 1-2.44 5.88 5.68 5.68 0 0 1-8.85-4.78zm8.16 0a2.5 2.5 0 0 0-1.58-2.25 2.46 2.46 0 0 0-2.67.58 2.5 2.5 0 0 0 2.75 4.05 2.42 2.42 0 0 0 1.49-2.37h.01zM78.71 9.6a1.95 1.95 0 0 1 2.31-1.9 1.93 1.93 0 0 1 1.52 1.52 1.96 1.96 0 0 1-.82 2c-.32.21-.7.33-1.07.33A1.95 1.95 0 0 1 78.7 9.6zm.32 2.9h3.26v10.83h-3.26V12.5zM96.23 17.91a5.5 5.5 0 0 1-5.18 5.75 4.01 4.01 0 0 1-3.26-1.33v5.35h-3.26V12.5h3.26v1.02a4.03 4.03 0 0 1 3.26-1.31 5.4 5.4 0 0 1 4.86 3.6c.24.67.35 1.39.32 2.1zm-3.26 0a2.6 2.6 0 0 0-1.63-2.33 2.54 2.54 0 0 0-2.77.6 2.6 2.6 0 0 0 1.85 4.38 2.43 2.43 0 0 0 1.86-.75 2.46 2.46 0 0 0 .69-1.9zM106.14 20.08c0 2.5-2.17 3.55-4.47 3.55a4.69 4.69 0 0 1-4.63-2.58l2.8-1.6a1.77 1.77 0 0 0 1.82 1.29c.77 0 1.16-.25 1.16-.68 0-1.2-5.29-.56-5.29-4.31 0-2.36 1.98-3.55 4.21-3.55a4.69 4.69 0 0 1 4.26 2.31L103.2 16a1.6 1.6 0 0 0-1.44-.95c-.57 0-.9.22-.9.6 0 1.25 5.28.43 5.28 4.43zM117.94 12.5v10.83h-3.25V22.3a3.7 3.7 0 0 1-3.07 1.34c-2.17 0-4.02-1.56-4.02-4.48V12.5h3.25v6.18a1.8 1.8 0 0 0 1.13 1.85c.23.1.5.13.75.12 1.17 0 2-.7 2-2.19V12.5h3.21zM136.4 16.68v6.65h-3.26v-6.37c0-1.1-.5-1.77-1.54-1.77s-1.68.76-1.68 2.03v6.1h-3.26v-6.36c0-1.1-.5-1.77-1.54-1.77-1.03 0-1.68.75-1.68 2.03v6.1h-3.26V12.5h3.26v1a3.33 3.33 0 0 1 2.88-1.3 3.16 3.16 0 0 1 2.82 1.43 3.55 3.55 0 0 1 3.11-1.43c2.54 0 4.15 1.78 4.15 4.48zM15.28 4.68V.03H.73v31.93h14.55v-4.64c-2.98 0-5.84-1.2-7.94-3.32a11.39 11.39 0 0 1 0-16 11.2 11.2 0 0 1 7.94-3.32z"/><path d="M15.28 4.68v22.64c2.98 0 5.84-1.2 7.95-3.32a11.34 11.34 0 0 0-7.95-19.32zM139.14 12.44c1.32 0 2.39-1.08 2.39-2.41s-1.07-2.4-2.4-2.4c-1.31 0-2.38 1.07-2.38 2.4s1.07 2.4 2.39 2.4z"/></symbol><symbol id="icon-suppor1" viewBox="0 0 157 32"><path d="M23.5 14.11a4.22 4.22 0 0 0-1.21 3.4l-.03-.03A5.06 5.06 0 0 1 19 22.63a5 5 0 0 1-2.15.29l.03.02a4.24 4.24 0 0 0-4.58 4.98 4.27 4.27 0 0 0 5.99 3.12 4.26 4.26 0 0 0 2.42-4.26l.02.02A5.06 5.06 0 0 1 24 21.66a5 5 0 0 1 2.14-.3l-.02-.01a4.23 4.23 0 0 0 4.57-3.59 4.27 4.27 0 0 0-3.28-4.8 4.22 4.22 0 0 0-3.91 1.15z"/><path d="m14.98 20.21-.03-.02a4.19 4.19 0 0 0 4.6-4.6l.02.02a5.06 5.06 0 0 1 3.27-5.15 5 5 0 0 1 2.15-.29l-.03-.02a4.23 4.23 0 0 0 4.58-4.97 4.28 4.28 0 0 0-3.45-3.46 4.23 4.23 0 0 0-4.96 4.59l-.02-.02a5.03 5.03 0 0 1-5.42 5.43l.02.02a4.19 4.19 0 0 0-4.59 4.6l-.02-.01a5.05 5.05 0 0 1-5.42 5.43l.02.02a4.23 4.23 0 0 0-4.24 2.43 4.26 4.26 0 0 0 5.65 5.67 4.26 4.26 0 0 0 2.42-4.25l.03.02a5.06 5.06 0 0 1 3.27-5.15 5 5 0 0 1 2.14-.29z"/><path d="M7.24 17.89a4.22 4.22 0 0 0 1.2-3.4l.03.02a5.06 5.06 0 0 1 3.27-5.14 5 5 0 0 1 2.15-.29l-.03-.02a4.24 4.24 0 0 0 4.58-4.97A4.26 4.26 0 0 0 12.46.97a4.25 4.25 0 0 0-2.42 4.25L10 5.19a5.06 5.06 0 0 1-3.27 5.15 5 5 0 0 1-2.14.29l.02.02a4.22 4.22 0 0 0-4.57 3.58 4.26 4.26 0 0 0 5.38 4.73c.68-.2 1.3-.57 1.81-1.07zM43 6.34h3.43v16.73H43V6.34zM48.37 17.34a6.08 6.08 0 0 1 7.23-5.98 6.05 6.05 0 0 1 4.77 4.76 6.09 6.09 0 0 1-10.24 5.52 6.01 6.01 0 0 1-1.76-4.3zm8.69 0a2.65 2.65 0 0 0-3.19-2.5 2.63 2.63 0 0 0-1.86 3.6 2.63 2.63 0 0 0 2.42 1.61 2.56 2.56 0 0 0 2.63-2.7zM74.15 11.61v10.88c0 3.86-3 5.48-6.03 5.48a5.83 5.83 0 0 1-5.42-2.77l2.93-1.7a2.62 2.62 0 0 0 2.6 1.44 2.28 2.28 0 0 0 2.58-2.45v-1.05a4.07 4.07 0 0 1-3.33 1.5 5.8 5.8 0 0 1-5.63-5.83 5.84 5.84 0 0 1 5.63-5.82 4.05 4.05 0 0 1 3.33 1.49V11.6h3.34zm-3.33 5.5a2.79 2.79 0 0 0-3.24-2.85 2.77 2.77 0 0 0 .47 5.52 2.59 2.59 0 0 0 2.77-2.67zM76.1 17.34a6.08 6.08 0 0 1 7.22-5.98 6.05 6.05 0 0 1 4.77 4.76 6.09 6.09 0 0 1-10.23 5.52 6.01 6.01 0 0 1-1.77-4.3zm8.68 0a2.65 2.65 0 0 0-3.19-2.5 2.63 2.63 0 0 0-.9 4.77c.44.3.94.44 1.46.44a2.56 2.56 0 0 0 2.63-2.7zM89.8 8.54a2.07 2.07 0 0 1 2.47-2.02 2.05 2.05 0 0 1 1.61 1.62 2.07 2.07 0 0 1-2.02 2.46 2.08 2.08 0 0 1-2.05-2.06zm.35 3.07h3.43v11.46h-3.43V11.61zM108.39 17.34a5.75 5.75 0 0 1-5.46 6.05 4.27 4.27 0 0 1-3.4-1.4v5.67h-3.44V11.6h3.43v1.08a4.28 4.28 0 0 1 3.4-1.4 5.71 5.71 0 0 1 5.15 3.82c.25.72.36 1.47.32 2.23zm-3.43 0a2.73 2.73 0 0 0-3.29-2.6 2.72 2.72 0 0 0 .57 5.4 2.6 2.6 0 0 0 2.72-2.8zM118.97 19.63c0 2.64-2.29 3.76-4.75 3.76a5 5 0 0 1-4.92-2.72l2.97-1.7a1.87 1.87 0 0 0 1.94 1.35c.82 0 1.24-.25 1.24-.7 0-1.27-5.63-.6-5.63-4.57 0-2.5 2.1-3.76 4.48-3.76a4.98 4.98 0 0 1 4.46 2.45l-2.93 1.58a1.66 1.66 0 0 0-1.53-1c-.6 0-.96.23-.96.64 0 1.3 5.63.43 5.63 4.67zM131.5 11.61v11.46h-3.43V22a3.9 3.9 0 0 1-3.27 1.4c-2.3 0-4.27-1.65-4.27-4.75V11.6h3.43v6.53a1.9 1.9 0 0 0 1.18 1.96c.26.1.53.14.8.13 1.26 0 2.13-.74 2.13-2.36V11.6h3.43zM151.16 16.03v7.04h-3.43v-6.74c0-1.14-.55-1.88-1.65-1.88-1.14 0-1.78.8-1.78 2.16v6.46h-3.43v-6.74c0-1.14-.55-1.88-1.64-1.88-1.15 0-1.79.8-1.79 2.16v6.46h-3.42V11.61h3.42v1.05a3.5 3.5 0 0 1 3.07-1.37 3.39 3.39 0 0 1 3 1.51 3.77 3.77 0 0 1 3.3-1.51c2.63 0 4.35 1.88 4.35 4.74zM154.06 11.54a2.55 2.55 0 1 0-.01-5.1 2.55 2.55 0 0 0 0 5.1z"/></symbol><symbol id="icon-logo" viewBox="0 0 135 32">
<path d="M2.097 6.223v6.179c0 1.015 0 2.152-2.097 2.152v3.321c2.097 0 2.097 1.137 2.097 2.152v6.179c0 4.8 2.637 5.142 7.106 5.142v-3.73c-2.097 0-2.891-0.309-2.891-1.501v-6.124c0-1.412 0.088-2.891-1.137-3.785 1.225-0.883 1.137-2.361 1.137-3.774v-6.124c0-1.192 0.783-1.501 2.891-1.501v-3.73c-4.469 0-7.095 0.342-7.095 5.142zM13.926 6.025c-1.148 0.971-1.721 2.361-1.721 4.182v1.633h-2.394v3.41h2.394v12.359h5.219v-12.359h3.222v-3.421h-3.211v-1.148c0-0.585 0.166-1.048 0.519-1.368s0.85-0.474 1.49-0.474h1.942v-3.972l-3.31-0.022c-1.258 0-2.979 0.21-4.138 1.181zM23.669 8.817h5.219v-3.961h-5.219v3.972zM23.669 27.597h5.219v-15.757h-5.219v15.746zM41.743 11.542c-0.993 0-1.876 0.221-2.67 0.662-0.806 0.441-1.479 1.059-2.019 1.843l-0.199-2.207h-4.877v15.746h5.186v-11.321c0.265-0.287 0.585-0.519 0.96-0.684s0.794-0.243 1.28-0.243c0.772 0 1.357 0.188 1.743 0.552 0.397 0.375 0.596 1.015 0.596 1.92v9.799h5.197v-9.788c0-2.185-0.452-3.774-1.368-4.778-0.898-0.931-2.157-1.509-3.55-1.509-0.098 0-0.195 0.003-0.292 0.008l0.013-0.001zM62.676 19.829c-0.993-0.75-2.494-1.324-4.524-1.699-0.956-0.113-1.825-0.39-2.612-0.803l0.041 0.020c-0.43-0.298-0.64-0.651-0.64-1.070 0-0.441 0.188-0.794 0.552-1.070 0.375-0.287 0.828-0.43 1.368-0.43 0.739 0 1.28 0.166 1.611 0.486s0.497 0.794 0.497 1.412h5.054l0.022-0.088c0.004-0.064 0.006-0.139 0.006-0.215 0-1.434-0.743-2.694-1.865-3.417l-0.016-0.010c-1.313-0.927-3.079-1.401-5.297-1.401-2.097 0-3.763 0.486-4.999 1.457-1.115 0.793-1.835 2.077-1.843 3.53v0.001c0 1.313 0.497 2.339 1.479 3.101 0.993 0.761 2.45 1.324 4.381 1.677 0.952 0.135 1.811 0.422 2.591 0.837l-0.042-0.021c0.463 0.309 0.706 0.662 0.706 1.048 0 0.474-0.188 0.839-0.552 1.103-0.353 0.254-0.883 0.386-1.578 0.386-0.839 0-1.49-0.166-1.942-0.497-0.463-0.331-0.695-0.883-0.717-1.622h-4.712l-0.022 0.088c-0.066 1.346 0.552 2.56 1.876 3.641 1.324 1.092 3.112 1.633 5.385 1.633 2.185 0 3.939-0.463 5.263-1.379s1.986-2.086 1.986-3.498c0-1.379-0.486-2.45-1.457-3.2zM81.236 20.977h-0.088l-2.748-9.137h-3.277l-2.703 9.203h-0.088l-1.832-9.203h-4.8l3.917 15.768h4.392l2.714-8.364h0.099l2.703 8.364h4.403l3.906-15.779h-4.8l-1.799 9.148zM96.662 11.542c-2.472 0-4.37 0.75-5.694 2.273-1.247 1.483-2.004 3.414-2.004 5.521 0 0.123 0.003 0.245 0.008 0.366l-0.001-0.017v0.552c0 2.207 0.728 4.028 2.196 5.484 1.457 1.457 3.421 2.185 5.87 2.185 1.324 0 2.56-0.166 3.708-0.497 1.159-0.331 2.097-0.761 2.825-1.258l-1.225-3.012c-0.905 0.364-1.655 0.618-2.24 0.772-0.596 0.132-1.379 0.21-2.361 0.21s-1.766-0.265-2.339-0.772c-0.564-0.499-0.947-1.19-1.047-1.97l-0.002-0.016 0.033-0.099h9.501v-2.582c0.006-0.107 0.009-0.232 0.009-0.358 0-1.88-0.734-3.588-1.932-4.854l0.003 0.003c-1.28-1.291-3.046-1.931-5.297-1.931zM98.825 18.185h-4.48l-0.044-0.066c0.077-0.85 0.309-1.523 0.684-2.030 0.375-0.497 0.927-0.75 1.677-0.75 0.739 0 1.28 0.221 1.633 0.64 0.353 0.43 0.53 1.037 0.53 1.832v0.375zM114.119 11.542c-2.472 0-4.37 0.75-5.705 2.273-1.24 1.481-1.994 3.407-1.994 5.509 0 0.127 0.003 0.254 0.008 0.38l-0.001-0.018v0.552c0 2.207 0.728 4.028 2.185 5.484 1.468 1.457 3.421 2.185 5.87 2.185 1.324 0 2.56-0.166 3.719-0.497s2.097-0.761 2.825-1.258l-1.236-3.012c-0.894 0.364-1.655 0.618-2.24 0.772-0.585 0.132-1.379 0.21-2.361 0.21-0.971 0-1.754-0.265-2.339-0.772-0.56-0.5-0.939-1.192-1.036-1.971l-0.002-0.015 0.022-0.099h9.512v-2.582c0-2.196-0.64-3.928-1.92-5.208-1.291-1.291-3.057-1.931-5.308-1.931zM116.27 18.185h-4.48l-0.044-0.066c0.088-0.85 0.309-1.523 0.684-2.030 0.375-0.497 0.938-0.75 1.688-0.75 0.739 0 1.28 0.221 1.633 0.64 0.342 0.43 0.519 1.037 0.519 1.832v0.386zM132.028 23.514c-0.64 0-1.148-0.166-1.49-0.486-0.353-0.32-0.519-0.772-0.519-1.368v-6.389h2.703v-3.41h-2.703v-7.018h-5.219v7.018h-2.406v3.421h2.406v6.841c0 1.821 0.574 3.222 1.721 4.193s2.869 1.181 4.138 1.181l3.31-0.033v-3.961h-1.942z"></path>
</symbol><symbol id="icon-building" viewBox="0 0 30 32">
<path d="M15.88 25.92h1.76v4.8h-1.76v-4.8zM12.36 25.92h1.76v4.8h-1.76v-4.8z"></path>
<path d="M20.92 0.72h-11.84c-0.48 0-0.88 0.4-0.88 0.88v29.12h2.4v-5.68c0-0.5 0.4-0.88 0.88-0.88h7.040c0.48 0 0.88 0.4 0.88 0.88v5.68h2.4v-29.12c0-0.48-0.4-0.88-0.88-0.88zM12.36 21.52c0 0.486-0.394 0.88-0.88 0.88s-0.88-0.394-0.88-0.88v0-1.76c0-0.486 0.394-0.88 0.88-0.88s0.88 0.394 0.88 0.88v0 1.76zM12.36 16.24c0 0.486-0.394 0.88-0.88 0.88s-0.88-0.394-0.88-0.88v0-1.76c0-0.486 0.394-0.88 0.88-0.88s0.88 0.394 0.88 0.88v0 1.76zM15.88 21.52c0 0.486-0.394 0.88-0.88 0.88s-0.88-0.394-0.88-0.88v0-1.76c0-0.486 0.394-0.88 0.88-0.88s0.88 0.394 0.88 0.88v0 1.76zM15.88 16.24c0 0.486-0.394 0.88-0.88 0.88s-0.88-0.394-0.88-0.88v0-1.76c0-0.486 0.394-0.88 0.88-0.88s0.88 0.394 0.88 0.88v0 1.76zM19.4 21.52c0 0.486-0.394 0.88-0.88 0.88s-0.88-0.394-0.88-0.88v0-1.76c0-0.486 0.394-0.88 0.88-0.88s0.88 0.394 0.88 0.88v0 1.76zM19.4 16.24c0 0.486-0.394 0.88-0.88 0.88s-0.88-0.394-0.88-0.88v0-1.76c0-0.486 0.394-0.88 0.88-0.88s0.88 0.394 0.88 0.88v0 1.76zM12.36 11c0 0.486-0.394 0.88-0.88 0.88s-0.88-0.394-0.88-0.88v0-1.8c0-0.486 0.394-0.88 0.88-0.88s0.88 0.394 0.88 0.88v0 1.76zM15.88 11c0 0.486-0.394 0.88-0.88 0.88s-0.88-0.394-0.88-0.88v0-1.8c0-0.486 0.394-0.88 0.88-0.88s0.88 0.394 0.88 0.88v0 1.76zM19.4 11c0 0.486-0.394 0.88-0.88 0.88s-0.88-0.394-0.88-0.88v0-1.8c0-0.486 0.394-0.88 0.88-0.88s0.88 0.394 0.88 0.88v0 1.76zM12.36 5.7c0 0.486-0.394 0.88-0.88 0.88s-0.88-0.394-0.88-0.88v0-1.76c0-0.486 0.394-0.88 0.88-0.88s0.88 0.394 0.88 0.88v0 1.76zM15.88 5.7c0 0.486-0.394 0.88-0.88 0.88s-0.88-0.394-0.88-0.88v0-1.76c0-0.486 0.394-0.88 0.88-0.88s0.88 0.394 0.88 0.88v0 1.76zM19.4 5.7c0 0.486-0.394 0.88-0.88 0.88s-0.88-0.394-0.88-0.88v0-1.76c0-0.486 0.394-0.88 0.88-0.88s0.88 0.394 0.88 0.88v0 1.76zM29.12 12.44h-5.56v18.28h5.56c0.48 0 0.88-0.4 0.88-0.88v-16.52c0-0.48-0.4-0.88-0.88-0.88zM27.66 23.86c0 0.486-0.394 0.88-0.88 0.88s-0.88-0.394-0.88-0.88v0-1.76c0-0.486 0.394-0.88 0.88-0.88s0.88 0.394 0.88 0.88v0 1.76zM27.66 18.58c0 0.486-0.394 0.88-0.88 0.88s-0.88-0.394-0.88-0.88v0-1.74c0-0.486 0.394-0.88 0.88-0.88s0.88 0.394 0.88 0.88v0 1.74zM0.88 12.44c-0.48 0-0.88 0.4-0.88 0.88v16.52c0 0.48 0.4 0.88 0.88 0.88h5.56v-18.28h-5.56zM4.1 23.86c0 0.486-0.394 0.88-0.88 0.88s-0.88-0.394-0.88-0.88v0-1.76c0-0.486 0.394-0.88 0.88-0.88s0.88 0.394 0.88 0.88v0 1.76zM4.1 18.58c0 0.486-0.394 0.88-0.88 0.88s-0.88-0.394-0.88-0.88v0-1.74c0-0.486 0.394-0.88 0.88-0.88s0.88 0.394 0.88 0.88v0 1.74z"></path>
</symbol><symbol id="icon-plant" viewBox="0 0 32 32">
<path d="M15.787 11.733c0.302 0.107 0.604-0.16 0.498-0.444-0.676-1.991-3.164-2.738-5.476-0.978-1.209 0.942-1.653 1.138-1.671 1.138 0.8 0.747 1.707 3.289 3.698 3.556 2.204 0.391 4.142-1.653 2.56-2.596-1.021-0.604-2.251-0.96-3.563-0.96-0.010 0-0.019 0-0.029 0h0.002c1.369-0.302 2.756-0.178 3.982 0.284zM25.724 10.311c-3.964-3.058-6.507 1.778-4.924 1.28 1.12-0.338 2.347-0.409 3.556-0.142-2.062 0-3.982 0.889-5.262 2.364 0.054-1.749 0.214-3.412 0.474-5.041l-0.029 0.223c1.067-0.036 2.489-0.853 3.253-2.258 1.351-2.276 0.711-4.604 0.533-6.062-1.067 0.96-5.636-0.178-7.467 2.773-0.782 1.298-0.551 2.862 0.284 4.018 0.267 0.373 0.907 0.196 0.924-0.249 0.089-1.92 1.102-3.378 3.004-4.196-0.853 1.049-1.422 2.204-1.707 3.413-0.444 1.884-0.924 3.111-1.084 9.102-0.018 0.604 0.498 1.102 1.138 1.102 0.462 0 0.871-0.284 1.049-0.711 0.267-0.604 0.711-1.244 1.422-1.831 0.711 0.711 1.742 1.102 2.827 0.924 1.973-0.284 2.898-2.827 3.698-3.573 0 0-0.462-0.196-1.689-1.138zM31.573 17.778c-1.244-0.8-2.596-0.231-3.2 0.107l-7.822 5.387h-4.551l-1.138-1.067h4.196c1.262 0 2.667-0.782 2.667-2.169 0-1.458-1.404-2.151-2.667-2.151h-1.564c-1.173 0-2.542 0.089-3.502-0.391-0.895-0.435-1.946-0.689-3.057-0.689-1.835 0-3.508 0.693-4.771 1.832l0.006-0.006-6.169 5.724 6.844 6.471 2.293-3.236h10.791c1.156 0 2.258-0.391 3.129-1.12l8.604-7.218c0.207-0.168 0.338-0.422 0.338-0.706 0-0.323-0.169-0.607-0.423-0.767l-0.004-0.002z"></path>
</symbol><symbol id="icon-water" viewBox="0 0 41 32">
<path d="M40.686 29.257c-0.64-0.457-1.211-0.983-1.669-1.6-1.097-1.257-2.514-2.811-5.097-2.811-2.629 0-3.977 1.509-5.12 2.857-1.143 1.371-1.92 2.149-3.611 2.149-1.714 0-2.56-0.937-3.611-2.149s-2.469-2.857-5.12-2.857c-2.651 0-3.954 1.509-5.12 2.857-1.143 1.371-1.897 2.149-3.611 2.149-1.691 0-2.56-0.937-3.611-2.149-0.709-0.937-1.6-1.737-2.651-2.286-0.112-0.047-0.242-0.074-0.378-0.074-0.555 0-1.006 0.45-1.006 1.006 0 0.357 0.186 0.67 0.466 0.849l0.004 0.002c0.8 0.457 1.486 1.097 2.057 1.829 1.143 1.326 2.514 2.834 5.12 2.834s3.977-1.509 5.12-2.857c1.143-1.371 1.897-2.149 3.611-2.149s2.56 0.937 3.611 2.149c1.051 1.211 2.446 2.857 5.12 2.857 2.651 0 3.954-1.509 5.12-2.857 1.143-1.371 1.897-2.149 3.611-2.149 1.691 0 2.537 0.937 3.589 2.149 0.594 0.754 1.28 1.417 2.057 1.966 0.158 0.105 0.352 0.167 0.56 0.167 0.565 0 1.024-0.458 1.024-1.024 0-0.357-0.183-0.672-0.46-0.855l-0.004-0.002zM40.686 21.714c-0.64-0.411-1.211-0.96-1.669-1.6-1.097-1.234-2.514-2.789-5.097-2.789-2.629 0-3.977 1.509-5.12 2.857-1.143 1.371-1.92 2.149-3.611 2.149-1.714 0-2.56-0.937-3.611-2.149s-2.469-2.857-5.12-2.857c-2.651 0-3.954 1.509-5.12 2.857-1.143 1.371-1.897 2.149-3.611 2.149-1.691 0-2.56-0.937-3.611-2.149-0.709-0.937-1.6-1.737-2.651-2.309-0.133-0.069-0.29-0.109-0.457-0.109-0.559 0-1.012 0.453-1.012 1.012 0 0.392 0.223 0.732 0.549 0.9l0.006 0.003c0.8 0.457 1.486 1.074 2.057 1.806 1.143 1.371 2.514 2.857 5.12 2.857s3.977-1.509 5.12-2.857c1.143-1.371 1.897-2.149 3.611-2.149s2.56 0.937 3.611 2.149c1.051 1.211 2.446 2.857 5.12 2.857 2.651 0 3.954-1.509 5.12-2.857 1.143-1.371 1.897-2.149 3.611-2.149 1.691 0 2.537 0.937 3.589 2.149 0.594 0.754 1.28 1.417 2.057 1.966 0.158 0.105 0.352 0.167 0.56 0.167 0.565 0 1.024-0.458 1.024-1.024 0-0.357-0.183-0.672-0.46-0.855l-0.004-0.002zM40.686 13.714c-0.64-0.457-1.211-0.983-1.669-1.6-1.097-1.257-2.514-2.811-5.097-2.811-2.629 0-3.977 1.509-5.12 2.857-1.143 1.371-1.92 2.149-3.611 2.149-1.714 0-2.56-0.96-3.611-2.149-1.051-1.211-2.469-2.857-5.12-2.857s-3.954 1.509-5.12 2.857c-1.143 1.371-1.897 2.149-3.611 2.149-1.691 0-2.56-0.96-3.611-2.149-0.686-0.96-1.6-1.737-2.651-2.331-0.133-0.069-0.29-0.109-0.457-0.109-0.559 0-1.012 0.453-1.012 1.012 0 0.392 0.223 0.732 0.549 0.9l0.006 0.003c0.8 0.457 1.486 1.074 2.057 1.806 1.143 1.371 2.514 2.857 5.12 2.857s3.977-1.509 5.12-2.857c1.143-1.371 1.897-2.149 3.611-2.149s2.56 0.937 3.611 2.149c1.051 1.211 2.446 2.857 5.12 2.857 2.651 0 3.954-1.509 5.12-2.857 1.143-1.371 1.897-2.149 3.611-2.149 1.691 0 2.537 0.937 3.589 2.149 0.594 0.754 1.28 1.417 2.057 1.943 0.164 0.122 0.371 0.195 0.596 0.195 0.555 0 1.006-0.45 1.006-1.006 0-0.361-0.191-0.678-0.477-0.856l-0.004-0.002zM0.549 4.114c0.8 0.503 1.486 1.097 2.057 1.829 1.143 1.349 2.514 2.857 5.12 2.857s3.977-1.509 5.12-2.857c1.143-1.371 1.897-2.171 3.611-2.171s2.56 0.96 3.611 2.171c1.051 1.189 2.446 2.857 5.12 2.857 2.651 0 3.954-1.509 5.12-2.857 1.143-1.371 1.897-2.171 3.611-2.171 1.691 0 2.537 0.96 3.589 2.171 0.594 0.754 1.28 1.394 2.057 1.943 0.158 0.106 0.351 0.169 0.56 0.169 0.56 0 1.014-0.454 1.014-1.014 0-0.352-0.179-0.661-0.451-0.843l-0.004-0.002c-0.64-0.457-1.211-0.983-1.669-1.6-1.097-1.257-2.514-2.811-5.097-2.811-2.629 0-3.977 1.486-5.12 2.857-1.143 1.349-1.92 2.149-3.611 2.149-1.714 0-2.56-0.96-3.611-2.149-1.051-1.211-2.469-2.857-5.12-2.857s-3.954 1.486-5.12 2.857c-1.143 1.349-1.897 2.149-3.611 2.149-1.691 0-2.56-0.96-3.611-2.149-0.709-0.96-1.6-1.737-2.651-2.309-0.133-0.069-0.29-0.109-0.457-0.109-0.559 0-1.012 0.453-1.012 1.012 0 0.392 0.223 0.732 0.549 0.9l0.006 0.003z"></path>
</symbol><symbol id="icon-animal" viewBox="0 0 32 32">
<path d="M28.592 22.656v1.568c0 1.040-0.688 1.92-1.648 2.272v4.384c1.983-0.364 3.474-2.057 3.52-4.107l0-0.005v-4.112h-1.872zM15.632 10.88v-1.616c-0.047-2.919-2.223-5.317-5.041-5.708l-0.031-0.003c-0.324-0.303-1.262-1.149-2.201-1.993l-0.678-0.599c-0.192-0.192-0.576-0.528-1.12-0.32l-0.608 0.24 0.080 3.52-0.144 0.096c-0.96 0.64-1.6 1.664-1.76 2.768l-2.56 1.632v1.12c0 0.832 0.32 1.632 0.96 2.24 0.64 0.592 1.472 0.928 2.368 0.928h1.936v1.632c0 0.8 0.144 1.6 0.4 2.384l1.44 4.096v6.24c-1.498 0.318-2.611 1.617-2.64 3.181l-0 0.003v0.256h5.568c0.16-1.392 1.216-2.512 2.624-2.832v-1.088c0-2.976 2.544-5.408 5.68-5.408h0.128v1.776h-0.128c-0.029-0.001-0.063-0.001-0.097-0.001-2.026 0-3.674 1.616-3.727 3.628l-0 0.005v2.768h-1.072c-0.736 0-1.36 0.48-1.52 1.152h11.648v-4.368c0-3.872-1.536-7.552-4.32-10.4l-5.168-5.312z"></path>
</symbol><symbol id="icon-play" viewBox="0 0 36 32">
<path d="M3.556 22.080v-12.551c0-5.333 0-8.036 1.707-9.067 1.778-1.067 4.089 0.249 8.818 2.844l10.738 5.902c4.764 2.596 7.147 3.911 7.218 5.973 0.036 2.027-2.276 3.449-6.898 6.293l-10.773 6.684c-4.8 2.951-7.182 4.444-8.996 3.413-1.849-0.996-1.849-3.84-1.849-9.493z"></path>
</symbol></defs></svg>